#!OML:ASF F:\VICON\USERDATA\INSTALL\rory3\rory3.ASF
:FULLY-SPECIFIED
:DEGREES
310
root -4.41934 17.7884 11.4724 -179.544 7.28099 -179.102
lowerback 13.5252 0.713153 -3.08105
upperback 1.07926 0.752814 1.72574
thorax -6.51174 0.544833 3.4246
lowerneck -15.8879 -7.75947 -11.0435
upperneck 35.6377 -7.89734 7.11441
head 16.2261 -2.90375 3.81642
rclavicle 9.29318e-015 -1.39149e-015
rhumerus -39.8058 -24.4685 -68.4711
rradius 33.412
rwrist 8.76868
rhand -19.6248 7.96468
rfingers 7.12502
rthumb 6.70205 -21.9093
lclavicle 9.29318e-015 -1.39149e-015
lhumerus -34.6643 6.11826 76.4443
lradius 40.2381
lwrist 1.92456
lhand -20.9546 26.216
lfingers 7.12502
lthumb 5.41817 56.1268
rfemur -9.9625 -2.26728 4.97634
rtibia 34.8513
rfoot -13.2092 -6.61554
rtoes -12.4887
lfemur -7.05769 -5.94249 -14.6138
ltibia 21.8251
lfoot -15.3358 -12.5914
ltoes -7.10267
311
root -4.34983 17.7771 11.4766 -179.642 6.83878 -179.11
lowerback 13.4789 0.708951 -3.04029
upperback 1.06455 0.758425 1.77932
thorax -6.50239 0.547365 3.45747
lowerneck -15.8647 -7.76138 -11.1314
upperneck 35.664 -7.84931 7.10443
head 16.2339 -2.89055 3.84017
rclavicle 2.90723e-015 6.55989e-015
rhumerus -39.8784 -24.5988 -68.1287
rradius 33.0922
rwrist 8.9734
rhand -19.7181 8.10976
rfingers 7.12502
rthumb 6.61199 -21.767
lclavicle 2.90723e-015 6.55989e-015
lhumerus -34.7105 6.01922 76.4878
lradius 40.4317
lwrist 1.88903
lhand -20.8273 26.4785
lfingers 7.12502
lthumb 5.54108 56.386
rfemur -9.19061 -1.61235 4.46292
rtibia 33.691
rfoot -12.502 -6.5772
rtoes -12.6495
lfemur -7.06388 -6.2646 -14.3648
ltibia 21.963
lfoot -15.5205 -12.7228
ltoes -7.29578
312
root -4.27856 17.7667 11.4809 -179.716 6.44479 -179.022
lowerback 13.3972 0.686644 -2.86796
upperback 1.07954 0.760529 1.80789
thorax -6.43917 0.54338 3.38928
lowerneck -15.885 -7.77036 -11.1024
upperneck 35.6038 -7.83852 7.0062
head 16.1988 -2.89677 3.78939
rclavicle 9.59136e-015 -1.35174e-014
rhumerus -39.9543 -24.7076 -67.9206
rradius 32.8782
rwrist 9.35372
rhand -19.6506 8.20253
rfingers 7.12502
rthumb 6.67712 -21.6722
lclavicle 9.59136e-015 -1.35174e-014
lhumerus -34.6575 6.06376 76.4209
lradius 40.5322
lwrist 1.7556
lhand -20.6403 26.5469
lfingers 7.12502
lthumb 5.72163 56.4497
rfemur -8.48213 -0.915818 4.1033
rtibia 32.5478
rfoot -11.6658 -6.60071
rtoes -11.83
lfemur -7.08842 -6.53964 -14.0024
ltibia 22.1227
lfoot -15.6922 -12.9131
ltoes -7.42517
313
root -4.20524 17.756 11.4861 -179.737 6.11429 -178.952
lowerback 13.287 0.696775 -2.70409
upperback 1.06598 0.799486 1.80712
thorax -6.39318 0.556712 3.288
lowerneck -15.8992 -7.78279 -11.1069
upperneck 35.5443 -7.85679 7.00733
head 16.1747 -2.90471 3.78403
rclavicle -1.17283e-014 -8.94531e-015
rhumerus -40.128 -24.8698 -67.7494
rradius 32.8344
rwrist 9.63972
rhand -19.6508 7.94541
rfingers 7.12502
rthumb 6.67697 -21.9293
lclavicle -1.17283e-014 -8.94531e-015
lhumerus -34.5903 6.03709 76.3405
lradius 40.5944
lwrist 1.65304
lhand -20.418 26.4659
lfingers 7.12502
lthumb 5.9363 56.3627
rfemur -7.87242 -0.157954 3.76683
rtibia 31.423
rfoot -10.714 -6.60265
rtoes -10.6731
lfemur -7.20814 -6.73005 -13.6488
ltibia 22.2456
lfoot -15.7109 -13.1458
ltoes -7.29728
314
root -4.12971 17.7432 11.4933 -179.793 5.76287 -178.913
lowerback 13.2708 0.723824 -2.59286
upperback 1.01987 0.851232 1.82192
thorax -6.43603 0.579625 3.23092
lowerneck -15.8445 -7.79423 -11.1888
upperneck 35.5269 -7.87963 7.12592
head 16.1687 -2.90327 3.8489
rclavicle -8.34896e-015 1.51076e-014
rhumerus -40.3354 -24.9789 -67.5897
rradius 32.8867
rwrist 9.94293
rhand -19.91 6.79941
rfingers 7.12502
rthumb 6.42674 -23.0831
lclavicle -8.34896e-015 1.51076e-014
lhumerus -34.5507 5.95718 76.2927
lradius 40.5677
lwrist 1.56779
lhand -20.1978 26.5998
lfingers 7.12502
lthumb 6.14882 56.4906
rfemur -7.24118 0.617007 3.43571
rtibia 30.3315
rfoot -9.6366 -6.59909
rtoes -9.79575
lfemur -7.29363 -6.99503 -13.3295
ltibia 22.3505
lfoot -15.5849 -13.2977
ltoes -6.76245
315
root -4.04913 17.7356 11.4983 -179.869 5.45861 -178.889
lowerback 13.283 0.758059 -2.54379
upperback 0.951495 0.901097 1.83416
thorax -6.51907 0.603562 3.20684
lowerneck -15.5944 -7.76615 -11.2771
upperneck 35.3424 -7.85723 7.20615
head 16.0224 -2.89779 3.89962
rclavicle 2.18663e-015 1.39149e-015
rhumerus -40.4573 -24.9998 -67.4985
rradius 32.8091
rwrist 10.2355
rhand -20.2946 5.68286
rfingers 7.12502
rthumb 6.05538 -24.2106
lclavicle 2.18663e-015 1.39149e-015
lhumerus -34.6386 5.87671 76.199
lradius 40.5843
lwrist 1.55988
lhand -20.3556 26.754
lfingers 7.12502
lthumb 5.99649 56.6491
rfemur -6.62813 1.44886 3.12727
rtibia 29.289
rfoot -8.53559 -6.56243
rtoes -8.2416
lfemur -7.29896 -7.25267 -13.0136
ltibia 22.4537
lfoot -15.5655 -13.4353
ltoes -6.927
316
root -3.96694 17.7277 11.5023 -179.892 5.2593 -178.861
lowerback 13.1908 0.815446 -2.48885
upperback 0.93455 0.983045 1.80918
thorax -6.49052 0.640427 3.13402
lowerneck -15.42 -7.70452 -11.1717
upperneck 35.0699 -7.81156 7.14278
head 15.8258 -2.88357 3.84947
rclavicle -4.14963e-015 5.36719e-015
rhumerus -40.5107 -25.3226 -67.3178
rradius 32.5811
rwrist 10.475
rhand -20.3985 5.83196
rfingers 7.12502
rthumb 5.95513 -24.0644
lclavicle -4.14963e-015 5.36719e-015
lhumerus -34.55 5.77648 76.047
lradius 40.5054
lwrist 1.59777
lhand -20.4712 26.5304
lfingers 7.12502
lthumb 5.88495 56.4287
rfemur -6.11028 2.30999 2.83417
rtibia 28.2876
rfoot -7.41878 -6.46536
rtoes -5.63944
lfemur -7.30877 -7.38585 -12.6849
ltibia 22.5223
lfoot -15.7372 -13.467
ltoes -8.14416
